# xmcd
#
# Track frame offsets: 
#        150
#        14680
#        32106
#        47820
#        67870
#        87783
#        105160
#        122365
#        139480
#        157687
#        174548
#        193312
#        210876
#        227749
#        246806
#        263607
#        278546
#        293165
#        309239
#        321577
#        337851
#
# Disc length: 4706 seconds
#
# Revision: 0
# Processed by: cddbd v1.5.2PL0 Copyright (c) Steve Scherf et al.
# Submitted via: ExactAudioCopy v0.99pb4
#
DISCID=18126015
DTITLE=Various Artist - prevue promo 1125A-3
DYEAR=2003
DGENRE=pop
TTITLE0=Jessica Simpson - With You
TTITLE1=Suzy K - Gabriel
TTITLE2=Suzy K - Gabriel(Mr. Mig Rhythm Radio Edit)
TTITLE3=Suzy K - Gabriel(Mr. Mig Rhythm Radio Extended)
TTITLE4=Christina Aguilera - Voice Within, The
TTITLE5=Michael Jackson - One More Chance
TTITLE6=Blue Man Group and Venus Hum - I Feel LoveJason Nevins Big Roo
TTITLE6=m Radio Edit)
TTITLE7=Madonna - Nothing Fails
TTITLE8=Madonna - Nothing Fails(Remix)
TTITLE9=Lumidee - Never Leave You - Uh Ooh, Uh Oooh!(Never Leave You D
TTITLE9=J Skribble and Anthony Mix)
TTITLE10=MYA with Fatlip and Tre' (formerly of The Pharcyde) - Fallen(Th
TTITLE10=e Remix Plus)
TTITLE11=Dave Matthews - Save Me(Radio)
TTITLE12=Waifs - London Still
TTITLE13=Cowboy Junkies  Way I Feel, The
TTITLE14=Guster - Careful
TTITLE15=Fatboy Slim - Don't Let The Man Get You Down(From The "SSX3" 
TTITLE15=Soundtrack)
TTITLE16=Home Grown - Kiss Me Diss Me
TTITLE17=Vendetta Red - Seconds Away
TTITLE18=Gary Hoey - Frankenstein(Instrumental)
TTITLE19=Hidden In Plain View - Twenty Below
TTITLE20=X-ecutioners, The - Like This(From The "SSX3" Soundtrack)
EXTD=
EXTT0=
EXTT1=
EXTT2=
EXTT3=
EXTT4=
EXTT5=
EXTT6=
EXTT7=
EXTT8=
EXTT9=
EXTT10=
EXTT11=
EXTT12=
EXTT13=
EXTT14=
EXTT15=
EXTT16=
EXTT17=
EXTT18=
EXTT19=
EXTT20=
PLAYORDER=
